<mxfile host="65bd71144e">
    <diagram id="KROCHyfQTl9lM3GI9lSf" name="CodeBuild">
        <mxGraphModel dx="1386" dy="791" grid="1" gridSize="10" guides="1" tooltips="1" connect="1" arrows="1" fold="1" page="1" pageScale="1" pageWidth="827" pageHeight="1169" math="0" shadow="0">
            <root>
                <mxCell id="0"/>
                <mxCell id="1" style="" parent="0"/>
                <mxCell id="2" value="AWS Cloud" style="points=[[0,0],[0.25,0],[0.5,0],[0.75,0],[1,0],[1,0.25],[1,0.5],[1,0.75],[1,1],[0.75,1],[0.5,1],[0.25,1],[0,1],[0,0.75],[0,0.5],[0,0.25]];outlineConnect=0;gradientColor=none;html=1;whiteSpace=wrap;fontSize=12;fontStyle=0;container=1;pointerEvents=0;collapsible=0;recursiveResize=0;shape=mxgraph.aws4.group;grIcon=mxgraph.aws4.group_aws_cloud_alt;strokeColor=#232F3E;fillColor=none;verticalAlign=top;align=left;spacingLeft=30;fontColor=#232F3E;dashed=0;" vertex="1" parent="1">
                    <mxGeometry x="140" y="20" width="660" height="400" as="geometry"/>
                </mxCell>
                <mxCell id="3" value="リソース" style="" parent="0"/>
                <mxCell id="4" value="S3&lt;br&gt;（静的Webサイトホスティング）" style="sketch=0;points=[[0,0,0],[0.25,0,0],[0.5,0,0],[0.75,0,0],[1,0,0],[0,1,0],[0.25,1,0],[0.5,1,0],[0.75,1,0],[1,1,0],[0,0.25,0],[0,0.5,0],[0,0.75,0],[1,0.25,0],[1,0.5,0],[1,0.75,0]];outlineConnect=0;fontColor=#232F3E;gradientColor=#60A337;gradientDirection=north;fillColor=#277116;strokeColor=#ffffff;dashed=0;verticalLabelPosition=bottom;verticalAlign=top;align=center;html=1;fontSize=12;fontStyle=0;aspect=fixed;shape=mxgraph.aws4.resourceIcon;resIcon=mxgraph.aws4.s3;" vertex="1" parent="3">
                    <mxGeometry x="660" y="60" width="80" height="80" as="geometry"/>
                </mxCell>
                <mxCell id="13" style="edgeStyle=orthogonalEdgeStyle;html=1;exitX=0;exitY=0.75;exitDx=0;exitDy=0;exitPerimeter=0;entryX=1;entryY=0.5;entryDx=0;entryDy=0;entryPerimeter=0;strokeWidth=3;dashed=1;fillColor=#dae8fc;strokeColor=#6c8ebf;" edge="1" parent="3" source="5" target="6">
                    <mxGeometry relative="1" as="geometry"/>
                </mxCell>
                <mxCell id="14" value="③リポジトリのマウント" style="edgeLabel;html=1;align=center;verticalAlign=middle;resizable=0;points=[];fontStyle=1" vertex="1" connectable="0" parent="13">
                    <mxGeometry x="-0.0273" y="-1" relative="1" as="geometry">
                        <mxPoint as="offset"/>
                    </mxGeometry>
                </mxCell>
                <mxCell id="15" style="edgeStyle=orthogonalEdgeStyle;html=1;entryX=0;entryY=0.5;entryDx=0;entryDy=0;entryPerimeter=0;strokeWidth=3;fillColor=#dae8fc;strokeColor=#6c8ebf;" edge="1" parent="3" source="5" target="4">
                    <mxGeometry relative="1" as="geometry"/>
                </mxCell>
                <mxCell id="16" value="④生成物の格納" style="edgeLabel;html=1;align=center;verticalAlign=middle;resizable=0;points=[];fontStyle=1" vertex="1" connectable="0" parent="15">
                    <mxGeometry x="-0.07" y="1" relative="1" as="geometry">
                        <mxPoint x="-6" y="-9" as="offset"/>
                    </mxGeometry>
                </mxCell>
                <mxCell id="5" value="CodeBuild" style="sketch=0;points=[[0,0,0],[0.25,0,0],[0.5,0,0],[0.75,0,0],[1,0,0],[0,1,0],[0.25,1,0],[0.5,1,0],[0.75,1,0],[1,1,0],[0,0.25,0],[0,0.5,0],[0,0.75,0],[1,0.25,0],[1,0.5,0],[1,0.75,0]];outlineConnect=0;fontColor=#232F3E;gradientColor=#4D72F3;gradientDirection=north;fillColor=#3334B9;strokeColor=#ffffff;dashed=0;verticalLabelPosition=bottom;verticalAlign=top;align=center;html=1;fontSize=12;fontStyle=0;aspect=fixed;shape=mxgraph.aws4.resourceIcon;resIcon=mxgraph.aws4.codebuild;" vertex="1" parent="3">
                    <mxGeometry x="460" y="60" width="80" height="80" as="geometry"/>
                </mxCell>
                <mxCell id="6" value="CodeCommit" style="sketch=0;points=[[0,0,0],[0.25,0,0],[0.5,0,0],[0.75,0,0],[1,0,0],[0,1,0],[0.25,1,0],[0.5,1,0],[0.75,1,0],[1,1,0],[0,0.25,0],[0,0.5,0],[0,0.75,0],[1,0.25,0],[1,0.5,0],[1,0.75,0]];outlineConnect=0;fontColor=#232F3E;gradientColor=#4D72F3;gradientDirection=north;fillColor=#3334B9;strokeColor=#ffffff;dashed=0;verticalLabelPosition=bottom;verticalAlign=top;align=center;html=1;fontSize=12;fontStyle=0;aspect=fixed;shape=mxgraph.aws4.resourceIcon;resIcon=mxgraph.aws4.codecommit;" vertex="1" parent="3">
                    <mxGeometry x="300" y="220" width="80" height="80" as="geometry"/>
                </mxCell>
                <mxCell id="10" style="edgeStyle=none;html=1;strokeWidth=3;fillColor=#dae8fc;strokeColor=#6c8ebf;" edge="1" parent="3" source="7" target="5">
                    <mxGeometry relative="1" as="geometry"/>
                </mxCell>
                <mxCell id="11" value="②指定時間にCodeBuild実行" style="edgeLabel;html=1;align=center;verticalAlign=middle;resizable=0;points=[];fontStyle=1" vertex="1" connectable="0" parent="10">
                    <mxGeometry x="-0.325" y="2" relative="1" as="geometry">
                        <mxPoint x="26" y="-8" as="offset"/>
                    </mxGeometry>
                </mxCell>
                <mxCell id="7" value="EventBridge Scheduler" style="sketch=0;points=[[0,0,0],[0.25,0,0],[0.5,0,0],[0.75,0,0],[1,0,0],[0,1,0],[0.25,1,0],[0.5,1,0],[0.75,1,0],[1,1,0],[0,0.25,0],[0,0.5,0],[0,0.75,0],[1,0.25,0],[1,0.5,0],[1,0.75,0]];outlineConnect=0;fontColor=#232F3E;gradientColor=#FF4F8B;gradientDirection=north;fillColor=#BC1356;strokeColor=#ffffff;dashed=0;verticalLabelPosition=bottom;verticalAlign=top;align=center;html=1;fontSize=12;fontStyle=0;aspect=fixed;shape=mxgraph.aws4.resourceIcon;resIcon=mxgraph.aws4.eventbridge;" vertex="1" parent="3">
                    <mxGeometry x="180" y="60" width="80" height="80" as="geometry"/>
                </mxCell>
                <mxCell id="9" style="edgeStyle=orthogonalEdgeStyle;html=1;entryX=0;entryY=0.5;entryDx=0;entryDy=0;entryPerimeter=0;fillColor=#dae8fc;strokeColor=#6c8ebf;strokeWidth=3;" edge="1" parent="3" source="8" target="6">
                    <mxGeometry relative="1" as="geometry">
                        <Array as="points">
                            <mxPoint x="178" y="320"/>
                            <mxPoint x="178" y="260"/>
                        </Array>
                    </mxGeometry>
                </mxCell>
                <mxCell id="12" value="①ドキュメント作成シェルのコミット" style="edgeLabel;html=1;align=center;verticalAlign=middle;resizable=0;points=[];fontStyle=1" vertex="1" connectable="0" parent="9">
                    <mxGeometry x="-0.2642" y="1" relative="1" as="geometry">
                        <mxPoint x="5" y="-25" as="offset"/>
                    </mxGeometry>
                </mxCell>
                <mxCell id="17" style="edgeStyle=orthogonalEdgeStyle;html=1;entryX=0;entryY=0.75;entryDx=0;entryDy=0;entryPerimeter=0;strokeWidth=3;fillColor=#dae8fc;strokeColor=#6c8ebf;" edge="1" parent="3" source="8" target="4">
                    <mxGeometry relative="1" as="geometry">
                        <Array as="points">
                            <mxPoint x="600" y="360"/>
                            <mxPoint x="600" y="120"/>
                        </Array>
                    </mxGeometry>
                </mxCell>
                <mxCell id="18" value="⑤生成したドキュメントの閲覧" style="edgeLabel;html=1;align=center;verticalAlign=middle;resizable=0;points=[];fontStyle=1" vertex="1" connectable="0" parent="17">
                    <mxGeometry x="-0.3655" y="-1" relative="1" as="geometry">
                        <mxPoint x="16" y="-11" as="offset"/>
                    </mxGeometry>
                </mxCell>
                <mxCell id="8" value="ユーザ" style="sketch=0;outlineConnect=0;fontColor=#232F3E;gradientColor=none;fillColor=#232F3D;strokeColor=none;dashed=0;verticalLabelPosition=bottom;verticalAlign=top;align=center;html=1;fontSize=12;fontStyle=0;aspect=fixed;pointerEvents=1;shape=mxgraph.aws4.user;" vertex="1" parent="3">
                    <mxGeometry x="20" y="300" width="80" height="80" as="geometry"/>
                </mxCell>
            </root>
        </mxGraphModel>
    </diagram>
    <diagram name="GitHub Actions" id="--jZ0QWdcl4VPKrdpVar">
        <mxGraphModel dx="1386" dy="791" grid="1" gridSize="10" guides="1" tooltips="1" connect="1" arrows="1" fold="1" page="1" pageScale="1" pageWidth="827" pageHeight="1169" math="0" shadow="0">
            <root>
                <mxCell id="P23BceGOKxN0Vzk2Ie9N-0"/>
                <mxCell id="P23BceGOKxN0Vzk2Ie9N-1" style="" parent="P23BceGOKxN0Vzk2Ie9N-0"/>
                <mxCell id="8PHDK9WQNix64sOF80Rl-2" value="GitHub" style="fillColor=none;strokeColor=#5A6C86;verticalAlign=top;fontStyle=1;fontColor=#5A6C86;" vertex="1" parent="P23BceGOKxN0Vzk2Ie9N-1">
                    <mxGeometry x="160" y="20" width="460" height="460" as="geometry"/>
                </mxCell>
                <mxCell id="26lTJ1h5X1y3i4yfRkBJ-1" value="AWS Cloud" style="points=[[0,0],[0.25,0],[0.5,0],[0.75,0],[1,0],[1,0.25],[1,0.5],[1,0.75],[1,1],[0.75,1],[0.5,1],[0.25,1],[0,1],[0,0.75],[0,0.5],[0,0.25]];outlineConnect=0;gradientColor=none;html=1;whiteSpace=wrap;fontSize=12;fontStyle=0;container=1;pointerEvents=0;collapsible=0;recursiveResize=0;shape=mxgraph.aws4.group;grIcon=mxgraph.aws4.group_aws_cloud_alt;strokeColor=#232F3E;fillColor=none;verticalAlign=top;align=left;spacingLeft=30;fontColor=#232F3E;dashed=0;" vertex="1" parent="P23BceGOKxN0Vzk2Ie9N-1">
                    <mxGeometry x="640" y="20" width="160" height="460" as="geometry"/>
                </mxCell>
                <mxCell id="P23BceGOKxN0Vzk2Ie9N-3" value="リソース" style="" parent="P23BceGOKxN0Vzk2Ie9N-0"/>
                <mxCell id="oPNIGt1bI-z7Xcp8070f-1" style="edgeStyle=orthogonalEdgeStyle;html=1;exitX=0;exitY=0.5;exitDx=0;exitDy=0;strokeWidth=3;entryX=0.5;entryY=0;entryDx=0;entryDy=0;fillColor=#dae8fc;strokeColor=#6c8ebf;" edge="1" parent="P23BceGOKxN0Vzk2Ie9N-3" source="8PHDK9WQNix64sOF80Rl-4" target="8PHDK9WQNix64sOF80Rl-4">
                    <mxGeometry relative="1" as="geometry">
                        <Array as="points">
                            <mxPoint x="220" y="250"/>
                            <mxPoint x="220" y="170"/>
                            <mxPoint x="300" y="170"/>
                        </Array>
                    </mxGeometry>
                </mxCell>
                <mxCell id="ynG-SStB--p3XDt9w2id-0" value="②指定時間にGitHub Actions実行" style="edgeLabel;html=1;align=center;verticalAlign=middle;resizable=0;points=[];fontStyle=1" vertex="1" connectable="0" parent="oPNIGt1bI-z7Xcp8070f-1">
                    <mxGeometry x="0.1667" y="-1" relative="1" as="geometry">
                        <mxPoint x="20" y="-11" as="offset"/>
                    </mxGeometry>
                </mxCell>
                <mxCell id="2yGhGBY3CYvBphzRFp8V-0" style="edgeStyle=orthogonalEdgeStyle;html=1;exitX=1;exitY=0.75;exitDx=0;exitDy=0;entryX=1;entryY=0.5;entryDx=0;entryDy=0;entryPerimeter=0;strokeWidth=3;fillColor=#dae8fc;strokeColor=#6c8ebf;dashed=1;" edge="1" parent="P23BceGOKxN0Vzk2Ie9N-3" source="8PHDK9WQNix64sOF80Rl-4" target="8PHDK9WQNix64sOF80Rl-6">
                    <mxGeometry relative="1" as="geometry">
                        <Array as="points">
                            <mxPoint x="440" y="270"/>
                            <mxPoint x="440" y="400"/>
                        </Array>
                    </mxGeometry>
                </mxCell>
                <mxCell id="hufKCJhhJf5Ufj19yKM_-0" value="③リポジトリのマウント" style="edgeLabel;html=1;align=center;verticalAlign=middle;resizable=0;points=[];fontStyle=1" vertex="1" connectable="0" parent="2yGhGBY3CYvBphzRFp8V-0">
                    <mxGeometry x="0.0615" y="2" relative="1" as="geometry">
                        <mxPoint as="offset"/>
                    </mxGeometry>
                </mxCell>
                <mxCell id="26lTJ1h5X1y3i4yfRkBJ-4" style="edgeStyle=orthogonalEdgeStyle;html=1;exitX=1;exitY=0.25;exitDx=0;exitDy=0;strokeWidth=3;fillColor=#dae8fc;strokeColor=#6c8ebf;" edge="1" parent="P23BceGOKxN0Vzk2Ie9N-3" source="8PHDK9WQNix64sOF80Rl-4" target="8PHDK9WQNix64sOF80Rl-5">
                    <mxGeometry relative="1" as="geometry">
                        <Array as="points">
                            <mxPoint x="420" y="230"/>
                            <mxPoint x="420" y="120"/>
                        </Array>
                    </mxGeometry>
                </mxCell>
                <mxCell id="KGsKyOGyz3J7itc6nZBw-0" value="⑤画面生成とGitHub Pagesでの公開" style="edgeLabel;html=1;align=center;verticalAlign=middle;resizable=0;points=[];fontStyle=1" vertex="1" connectable="0" parent="26lTJ1h5X1y3i4yfRkBJ-4">
                    <mxGeometry x="-0.0105" relative="1" as="geometry">
                        <mxPoint y="4" as="offset"/>
                    </mxGeometry>
                </mxCell>
                <mxCell id="8YbBszbb3bh624OMypiS-0" style="edgeStyle=orthogonalEdgeStyle;html=1;strokeWidth=3;fillColor=#dae8fc;strokeColor=#6c8ebf;dashed=1;" edge="1" parent="P23BceGOKxN0Vzk2Ie9N-3" source="8PHDK9WQNix64sOF80Rl-4">
                    <mxGeometry relative="1" as="geometry">
                        <mxPoint x="680.0665463169446" y="250" as="targetPoint"/>
                        <Array as="points">
                            <mxPoint x="650" y="250"/>
                            <mxPoint x="650" y="250"/>
                        </Array>
                    </mxGeometry>
                </mxCell>
                <mxCell id="mMnIP-xPhr2QNvxFJkvS-0" value="④OIDC認証で接続してAWS情報取得" style="edgeLabel;html=1;align=center;verticalAlign=middle;resizable=0;points=[];fontStyle=1" vertex="1" connectable="0" parent="8YbBszbb3bh624OMypiS-0">
                    <mxGeometry x="-0.5736" y="1" relative="1" as="geometry">
                        <mxPoint x="97" y="-9" as="offset"/>
                    </mxGeometry>
                </mxCell>
                <mxCell id="8PHDK9WQNix64sOF80Rl-4" value="GitHub Actions" style="shape=image;verticalLabelPosition=bottom;labelBackgroundColor=default;verticalAlign=top;aspect=fixed;imageAspect=0;image=data:image/png,iVBORw0KGgoAAAANSUhEUgAAAZAAAAGQCAYAAACAvzbMAAAz0UlEQVR4nOydTVbb2LfFr7Kq/6dGUGIEgREEeukFRhAYAaFnWoRW3IOMwGQEkB49nBHgjCCqEZTfCPSWnK1EMbaRpX0/tX9rZZH/q5eLP87VvufjnvOXESvJx+WOMWbPGFP//B9+1hy0XGpujJk1/v4df59W/7sYZTPySxdCCCdkvl9ACOTjcg/i8Bo/a+FwRQGR+Q5hmRWjbO7w9wshxNYMUkAgGJUH8QY/XYpFWwqIybfqZzHKCt8vSAghmgxGQPJxeWSMeQfByH2/ng7MIChfFPYSQoRA0gLSEI2jQL2MrlTeyL3ERAjhk+QEBOGpswRFYx2VmHw2xtwqbyKEcEkyApKPyxMIx57v1+KRW3glU98vRAiRPlELCEptP0A4huBttKXOldz6fiFCiHSJUkAkHK0pjDFXEhIhhA2iEhAJR2ckJEIIOtEISD4uK+G4lHD0YgohUY5ECNGb4AUkH5cHxphJpHc3QuXeGHOuy4lCiD4EKyAIV01Qjiv4zOGN3Ph+IUKIOAlSQFCSe61wlRNmxphTXUgUQmxLUAICr+Nui063gkfljXz0/SKEEPEQjICg7chEXodXKi/kWLkRIUQbghCQfFxeozw3JppzPtaxE+HN+DlCWve+X4gQImy8Ckg+LnOErEJ9yE5xh+Jf/N10LYHFe23+qWePhFpddlOMsnPfL0IIES7eBATluXcBhazq+RvfMX/DSVK5MfmwOZ8kFKYIaalJoxDiGV4EBFVWEx+/e4lKJL64FIw2IB/0BiXMvj2UAiISzOcjhAgD5wISQL6jFo37GJLFaE//3rOYzCEiusEuhPiFUwHJx2XldZy4/J1gjlbnn2MQjXXAM3nv8XLlqfppCSFqnAiIx1vliyaC8DaSieMjIX8GMXadQ5KICCEWWBcQiMej40qrQXSf9didWCIihLArIB7EYxDCsYwnIZGICDFwrAmIY/FQY8Dfoa1Lh3kmiYgQA8amgNw5ynncojV5MjmOvuCOzbUj8ZaICDFQrAiIo2qrAg8vlZauIR+XH+GR2EYiIsQAoQuIo3seNwhZyet4AdwjmTjwRvZ12VCIYUEVEAc3zNXoryMOhL36bg4lIkIMB5qAIO7+yFpvBTM8oOR1dMRBy3x9R0IMiFeMRRpddW1xW4yyfT2Y+gHPbb9FG/qu7AXS40wI4QCKgFjuqntajLJTS2sPDrRyOTTG2AoDHiF5L4RInN4hLIuxdeU7LGO5Wu5QFXJCpE0vAUFM3UboSglZR+Tj8gPujLCpvsNdhR2FSJfOIaxGg0Q2Eg+H4Pa+jRChLfsQQgRCnxyIjbyHxMMDuARoQ0SOUNothEiQTgKCsAd79KrEwyMWReQaVXpCiMTYWkAQumK3x5B4BABE5Iq87I6lHIsQwjNdPBAbF9FOJR5hUIyyj2hQyeQIBRdCiITYqgrL0m1z5434EFKpHmhvIIbNcFyBP9+MMdOhlqLm4/KRHKYs0C9LVVlCJMK2AvKj+kH8/bcuLwkioXu2ZWPB6oH32RhzM6SHn6V5LlfwcIQQCdBaQCzcF5gVo2yfuN5aSPMxFkIypAcgOvk+kkOWu7gNL4SInFY5EAuJ8znaaVgHbTUYJ+nFZ5CPyycIUvIgL3VOXtbFfBIhhAPaJtE/kE+hpy7CQWjVwX5gLU7l+bi8hrAmDfJTzBzVCTwbIUTkvCggeEieEX/njYv+Vg6mIlai+jSQ6qJzJMFZqKxXiARo44EwvY/Cwj2DZ6DBo4sb0Is29vm4vEv5shy8RWaxw8FQwoBCpMxGAbHgfVgPXeHBZHuk7jJH8EZc/15noJz5hrjke+JaQggPvOSBML2PW0d3Knw18NtB246nhGP8VyiAYHCSstcmxBB4SUBY3sfcQjXPM3DPw/dDaQ/eyMfUkuzwHpnfoyqyhIiYtQKChzHrAXjl6BJeSA+kSwhJUrF+VGWxPMmj1ERWiCGxyQNheR8FZk5YBWEj397HMjlKfu8Se1CyCiF2HBU7CCEssFJA8DBmxfGtV12BkMtpq9f2I5UkO3JZrFJsZpGGEMIh6zwQpvfhqlHiG0e/pyt1kv0xkeQxKxeSpxbmE2IorBMQ1mnelfdhyE3/bHIAbyTqnlroZ8U6HKikV4gIeSYguFnNiNe79D6MhRkltrnMx+WPyE/fn0nrhBx+FEKsYZUH8o60tkvvI1bqJPskxiQ7mi0yKrJ2BtISRoikWCUgjI08JyZZXTFFXN/HzI8ThLVifIiyvBDWwUUI4Yg/BIQYvrqNcfgSyo13PYnfDvpqRZVkR2NMRqPFGMVTiEGz7IGwToGsU6lzKuErRtkx5pX4GHx0UN9k9/C7u/KFsIbCWEJExrKAMBK6sxQmzuGuwz65gWBbmsOrYqguYxVLhF6KLYRo8EtAiDe5GafRIIA3cg4hmXl4CXVfraCHV+HAwPh85IEIERFND4RVThpb8vxFilFWz2/3lWSPYXgV4+CQx5T/EWLoNAWEET5IIny1DiTZ9z2JZOjDq1ifScz3YoQYFGwPJJnw1ToqgUSS/diTNxLk8CpiGEt5ECEiYSEgyH8wYuwuBkYFAcpXdz0m2eu+WiEl2b8S1gjp/QghNlB7IIxNW+Bm8mBoJNkPPSXZDwIbXsU4QEhAhIiEWkBeE9YajPexTDHKpkiyM0e+bkMQw6tYI4t9vw8hRDuYHsh3whpRU4yyj0iy+xDTUIZXyQsRYiAwBWSwHkgTJNkPjTGnHpPsPzCS2AffCGv8Q1hDCGGZVzit9j6xDi3/8RJoZb9LvKW9DdX3OfHkjTDsQB6IEBHwSt6HPZBkP/XYV+sIYS2XIsIQkBDvuQghlnjFGh5FWCNZkGTf9TQjZc+liJAukkpAhIgAlgfyL2GN5PGYZK++42uHv6/3+wvsfosQYgWVgPyPsI5CWC1BX61DD321Thz20mK8rxDutQghNsDyQMSWeBpe5aqrL6OkWwIiROCsGmm7NawLZEPDw/CqHONzbcPwQHSwESJwKAIi+uF4eNWZg9+hkm4hBsArQhfe6Gafh4jD4VW5EtRCCAYMD0SnTSKOhleFPJiqRrfRhQgchbACpTG8ykZ+yfbMDV0mFGIASEACptFXiz28yurDuRhlCmsKMQAkIBFgYXiVTvdCiN5IQCKhkWQ/9v1ahBDCSEDiAi3aJ75fhxBCVPzl+wWIl0HZ7TWh5LpGOQohRG8kIAGDtiMfMLKWidXS63xcKscixABgCIh6FlkAc8EnlhLetu/uMF6z7hcJETh/IZzRRwR0q5kITu/Xli/7McbO2ub/fL8AIcRmXumkFw75uPxgjHmyLB5zlAXbRF6pEAOAkgOpTs2kSXSDBEnyiSNvzsWMdnmlQgyAv0gVObnG2m4PkuSXSJS7oPquPzv6XX3RiAAhAucVafiPqm62BNMBnxyKR8VnR56i7V5bQogAYJXxSkBagiT5hHinoy0zzGR3ASMHotycEIHzihQqeE1YI3nycfkRXodr8Zg7boHSOweihoxChA8rB6Kk6QZwp+Pa0+dUfb+HroocSMOq5H0IEQGvilFGmd2AhLBoUH0m+bicGGMePYnHDOLh8oHMeJ/yPoSIgLqZIuN0Ki+kARof/jDGnHh6CTcexMOQwpkxXHQUYvDUSfQZIRF+oNJLr0nymuq7PC9Gma/vgvG+VRIuRATUAvKdcPt58KWbSJKzGx+2ZY4yXVeVVs9AGFM5ECEGQi0gU8KDz9eJ2zuWGx+2ofr+TgPoBkCxAQ9hNyFEB5ohrN7k4/LIQZ+lYMCJe2K5d9UmCoSrQvnM3xHWGHwYVIhYWCTRUXPPOL0OJoyFxoc/PIrHjTFmPyDxMCQPRAl0ISKheRN9SqgYqh6m5z3XCBoL0wG3ZYZwVVBhHnwujBCePBAhIqE5E51x8stJF8mCA3c6rj3dJDdIkp8Xo2w/NPEA7xmLeKweE0JsSVNAWKEQyoMkJDw1PmxSfTe7xSi78fT728AI5Uk8hIiIXwKCPAjjZOsrJ0AnH5eVR3VnjLnzVGFV4DLgcci9oVCFxvh8vhLWEEI44tXS/2acAHOc2KPG0XTATVwhSR7DqZzldcbwXoUQYLmd+xdSmOY9MSTmFM+NDw0eoueB5jmegVJmRruWIpb3LIT4yR8eCDYwo5z3CC09YqJOkvtqfDhHdZWP/lV9YPX6ivLAIcSQWQ5hGeJGPiOt44o9j0nyWyTJXcwrZ8P6nr+Q1hFCOGKVgLA28olavL9InSQ/DTlJvg50HGZ4mgpfCREhzwSEGMbacXyi990HaluuilG2G0mSfB2sxpHyPoSIkFUeSMVn0vpnDr2QWE6wU4SrvHXNZUD0PgxCeEKIyFgnIKwN7dILCb2H0mIuOZLksXlLq2B5H9NEPg8hBsdKAUE8niUiZ44qskKu4rmB1xHya2wN2ftgebtCCMes80AMMS6942LIEk6xoeUT6pnk5zEmyVeBkOQ1abkiFVEVYoisFRAkd1kP5BNc0LNNKMnYZuPD0EStLx9wKGAg70OIiNnkgRjyA5l1al0L7lH4fmDfowVJyI0PO4FOyyxvkhkmFUJ4YKOA4IHMSnDuYWa4bXzNIymQJD9OOCk8Ia71OZWwnhBD5SUPxKCpH4tL2/NCcI/l1ObvWEGI0wGpQPxZ390cn5kQImKyNv9P+bj8Qay6mRWjbJ+01lrycTkh9mlaR1SND7sC0X8iLnkV+z0YIUQ7D8SQvZA9NC20SjHKTsmvu0mdJI+t8eHWoOqKGbqS9yFEIrQSEAvJ6Q8uZobglHuMhxaLGKYDMmG3tlfuQ4hEaBXCMr/nZDwSf/cceQPrCefG3YU+Ia0C7dZ9V3k5AxcGmd5HUYyyXeJ6QgiPtBYQ8/OBckee0FdftHNyIsWN+Eu8h7Z3GSqP42ukrdY7YyHvYVCllmyhgRBDY1sByfFQYTZIvC9G2TFxvVbAo6r+/LNUIFCJ2XeI23SI4RZL33P1WR4S1xNCeGYrATG/Z4Wzk+C3SHoLzyDcZ2Mq427C92OEGCRtq7B+geQxu/LoBMIkPGJRPK4kHkKkx9YCAmx4C9dI2gp/3FkQj5nufAiRJp0EBHcfbNyxmEhE/ICLlzYaXio0KUSibJ0DaZKPyycLJ1aDctlBVT35AmGrO0vicT6g+zJCDI6uIawa9iW9momjxouDppHzsCEeU4mHEGnTS0CQGLUVorhEWEVYAKW6NhLmph7fa2FdIURA9Aph1aC3la0qqikuoA3uPoYtcEnwkXzPo8nhkG7sCzFU+oawFhSj7NziIKdFCxXbbeCHAooU2JcEm5xLPIQYBhQBAcfE4VPL7EFEVKHVkXxc7iAkaDMseKu8hxDDgRLCqnEQGjEYg3qukFZ78L1MLOU7apzMeRFChAPTA6nvh9hOni5CMOhlJV4A1Wy2yq1rFk0xLa4vhAgQqgdSY6EN+Dpu0CZD3sgSjrwO47ItvxAiLKwIiHErIvV0QF08/H234wPa1ttmjoqrpKcyCiFWY01AjFsRMagCuxpyBRA+72vLOagaiYcQA8eqgBj3ImKQZB9U91d8xpdLc01sIvEQQtgXEONHRAyE5HPKDzkPwmEkHkKIGicCYvyJiEFo63Mqo1SR46g+yzPHwmEkHkKIJs4ExPgVEYNLjl9w2S268BbKlt9DPHwwQ0uZ6D47IYQdnAqIcXfZ8CVmEJP7kB+I+Kwq0Tjy4G00mcHzULm0EOIXzgXEuL2j0Ibq4fgV7ce9VnAhPFV5Gu/w06do1GhevRBiJV4ExPx+WE5wug6JSkS+QVhmNj0UCGn15zUEIwRBbaKBUEKItXgTkBq02nBx6a0PUySQv+NnM4k8WxXawbyN2oPYaYjDm6X/HSJz5DsGe6dGCPEy3gXE/E4Q33nOi4ifRD9/BZ5dDpH+pyHkey1sbAYBrQ8MBf6sPCiI4SC7ek4QAmLCDmkNiehCVo280RtsZJtNNgsI7HfkzFTOnCiyq3YEIyA1jttxiJ9UBnsai+HiJHiEYgOfocB6439N5Z7RkJFdbU9wAmJ+5w+u5Y044aoYZR99v4iXgE2coKw5hOq0ZebGmGqzf1HuKB5kV/0IUkBq8nF5BCEJ8YuNnSm8jmDvwZjfNnBmOYTApvpMP6MEOtr4dsrIrjgELSDGfXvyIVAg1xG0a+ypzxebeaMnW9BCPRRkV1yCF5AauJqXHlt5xM4cBhd0uCqRDb4KDT/ziOzKDtEISA0SXdeRuZ4+mcPtvQn54YVS7kmCG7xJFN9FSsiu7BKdgNQE0FwwdKJ4WMGznAzsQFAg/xRcUjQVZFduiFZAahqhrSOV/i4ILtG2jnxc1rmtoX5v99jwQX9PsSG7cmdX0QtIjec5GSEQzdyTgZ4O1zHHZg/+ewsd2dUfOLGrZASkSSO8lbpXEt2ME5RPThL/XrpwU4yyc98vIlZkV2uxaldJCkgTGNa7hMSkaFwsiuLmeE0+Lq9Rki1Wo7krHZBdvYg1u0peQJpATN4EMKBpW6aNmSVRiYb5HV68U2ihFRob3BLZ1VZYsatBCUgTxEubzdJCaq9ezyTxPuSqL/ic7wL7fENnjsuet75fSKjIrjpBt6vBCsgyyJs8Ov61dYvnb43WzsmcPAMZXxwzpxKR58iuekOzKwkIIApILQr13/+v8d9qbyLqGQBtCHiTb/Lo2sx1cI1EpIHsigbFriQggCgg0c3UYBPIJp82PLtim1BgY5rkQWPcsM/3IhGRXdmgt11JQABRQO6LUXZMWCdKPG7yujrtm43ad7yvujzcR9x90CIiu7JGL7uSgACigMyLUfY3YZ3oQFXMk8MKNy+zEjzOkBikiMiurNPZriQggJxE308pGd4GbPJHR6eoYPp8OZ4rMbgSX9lV2Hb1ys7rGTzvfb8AD0wcbPLK0K+MMbvFKPvoe5NXFKPsvhhlh9UGfCGRymDxMMVDdSjIrgK2KwmIHQY1ijcflx8dvOebkDb4MsUom2LDnzaq8Gyw46Hc3Auyq/DtSiEsYOEeyGHslwDb4OD+zAwx2mjCNjjJXVpur5F07yzZ1XNCtCsJCLBgsLfFKDslrhccMOgfFitjrkKfoLgJBw3+jlPs4iu72kxIdqUQlj1OUFWRMraMuE7qRbvJDeLYxphdnHZtMEk0HyK72kBIdiUBscul7xdgC5yCbMSnZ6hiSyL8V4yyeTHK9iuP1MLyO3jYJoPsqh2h2JUExC5JeiE4ndh4cNVtp6OYbbINCGfayFkc4aEbPbKr7fFtVxIQ+6TohdgYF3qf+iwMtLixkRe7TiSUJbvqgE+7koDY5wTtCpIAHhW7CmRajLLjlDd5DW78sje7je/EKbKrfviyKwmIG659vwAi7BDDzBgzqN5h2OzssMNZ5F6I7KonPuxKAuKGg3xcRn1CNL9LnZmtFYrUwwvrQNiBmQDdifWgIrvi4dquJCDuuEwglMXM58xRbz64TV6DBCizFDPWog3ZFRGXdiUBccdOzHX7Fk6J5zHdArbIIblFxRlxLevIrqzhxK4kIG7ZizXMQG4QeTvEtuSrwEmZmfw8ieyQIruygCu7koC45yS2fEhjTgGDwlLderTgZjFriuUO8buyiuzKLi7sSgLih+t8XEaxyQHztZ4POT69gStiyCGWMJbsyj5W7UoC4o9JRCLCCjNMU2z+xwAPP9YJOkduIXRkV5axbVd/kRYW3ahExIQct0U7A1ZlTxLdiRF6OcDn8gbhk38xD79zAreyg3xcviclld87GETUGdnVc2K0KwmIf0IXkXekdW5j70WEJOL1htDLZT4upz0rga5IG/0o8Aer7ArEbFcKYYVBJSKhdlVlNeq7Iq3jBdzheWoRtz/AeNBO4Ul0i2V4DjuBN1mUXSVgVxKQcDjJx+VTSCWYMBTG64n6lIhN/rhFyKW+89P1xPe5479bhnXKpyK7+kkKdiUBCYvKoH4EdHJ8Q1rnC2kd5zQ2eZcHXqeLo0gIMx6MoSbSZVeJ2JUEJDwqw7jLx+VdAN4I4wE0i3WIT89NbnCy7HoYYDwc80Db58iuErErCUi4HMEb8TJ+E+LFePhEeUokbPKarqWqrKKKoLwQ2VVadiUBCZsdVGD88HBnhPXgia4+n7jJTdfPEbF9Rk+n14Q1mMiuErIrCUgc5Ih7LjwSR6EtxilxFluSk7zJ+8I4ZQflgciu0rIrCUhc5Gh9/R9yJDaT7YxE51fCGs4IbJMbUtllHkAurYnsyj80u5KAxMsRku0lxOQDOWHKWCuaJKfFTd7nBvGM1McopES67IpDEHalm+hpcFRXZeTj0mCD1W0QuhpLb4OPpUrG8gmx72cwJVy62wvooSu74hCEXUlAuFwZY/4JoJ12CHHvKIb6OAgv9L289Z2w0a/zcRnrHJplZFc/CcGudiQgZIpRdgovwLeI+Iay0XHrdq+xEadIovZ2wR1s8htCsndKHvkaO7KrcOzqtQTEAhKRBf/2+ccYunW2os3DJf77bZ8ZEA42efUwYrTRjqrayAGyq3DsSkl0W2CwfcjdUG3T6aSYj8udfFw+oTvpph5BJ7houXVS1sUmx0zq3sRWruoA2RUBkl1JQGyCFu375OH2sbD1e0a56eMWlTo76FDaerO72uTk6XhDtJ91yK549F1rTwJiGZTM7QZUBRMyHzqUebbe7JFuchNL4jhgZFfr1+2FBMQB1RdfjLJDjJYcxGly21JLnBK7JvVe3OwRb3LRQHYVFhIQhxSj7AYhLXkjz+lbcLB2sw99kw8c2ZVFJCCOKUZZAW/kdCjeSEsYTf+ebXZt8sEju7KIyng9gUH393CvP/h+PQHQdirbS9Sbva5WGfwmHziyK4vIA/EIciPnSLKz+vQHgecGfnXVjTZ5YsiuwkICEgAIa502hCQK43mBbate2JVGO9rkSSK7CggJSEAsCcn5wG4hf/f9AlriY5OH0NssVmRX6+ltVxKQAEFo66YYZbuo2rqJ0CvZNvZ8H8F7jO6EmCCyq3CYSkACpxhli943xSj7uyEmMVws22qjY/Nc2Xs5vfGyydH0T/xGdkWAZVcSkIhoiEklJJWgHGNzTAM8ZW1dPol7MiEWE/g8IbKqiFJBdsWBYVeFyngjBUZ3jz8LUKGyB+OoDeR1x6Rf3xNKp8lzAXYy9h1eoGz0gPJpsqufpGBX/0pAEgLGSLnlno/Lsu8SlaB12SABbXbfm9yQZohXXus9YZ3eyK4WpGJXM4WwxDoYeZbOp01Uo/kMO4SwyQ2pAisU78PIrtKyKwmIWAfjofOu1wvwt9mD2OT5uOw7cnQBOkKHguwqIbuSgIh1MOrne59yPGz2IDY5YIQZQmvcKbvyD82uJCBiHYwHT95lstsyDjd7SJu8gnFSDMn7MLKrIKDZlQRErGTbuQsbeM9YxMFmD2qTo06fUSnzjbAGDdmVX9h2JQERm2BsdlrFi8XNHtQmB5QHZIAhLCO78grVriQgYhNfCWvs5OMy5M0e3CbHfR5KmCGk99VAduUBG3YlARGbYJ1ez0jrLCBu9uA2OfhA6vjKeFDbQHblB7pdSUDEWlD+ySi73GP3dCJs9ttilO2HtslxSmQ9GIO4PLiM7Mo9tuxKAiJegvUQuiSt84sem/0W/zZEWKfEIrD7H8vIrtxixa4kIOIlPpPWOWBdYGrSYbMHu8nJp8QvpHVsIbtyhE27koCIjRSjrCDeJbgmrfMH2LjHL4RF5ugJFeQmB5fEaXchdp/9hezKKdbsKiMtGj2IpT72XOaqGGUfSS8pGFDtMiEtZ/Uzwml0r9H2+zuqRoLMB9TgYtwTablpMcoOSWtZQ3ZlH9t2pW68og33OOUxTjGX+bi8txWfx4YOelOvgfUgNcTwkG1kV/axalcKYYkXQUUJ86E0QVxW/Dwlfuw652IFRein4hrZlV1c2JUERLTlhrjWnq24dWwgdMqsJAp5fOsqZFcWcGVXEhDRCpwWmYnZE+ZN4hjJx2VujLkjLlmdEoNOni8ju+Lj0q4kIGIbrsiz1yeMrqoxglDLHbE6xkTofdTIrki4tisJiGgNSi/ZCdrHoW12bPJHYnzaxOh91MiuOPiwKwmI2JYb8mlxZ4Cb/Zq8yStCvofQBtlVf5zblQREbAVi1ufkZQex2asTYj4uH5mtyMGUOGfDC7Kr7vi0KwmI2Bq4tOwHVtKbvRFeoDb/w6k9du9jgexqe3zblQREdOWUHHIw2OxPqVXRNG4D23iIXSGHkAqyq5aEYFcSENEJGJetqp9JPi6TuBSGh9YjaYzoMtNilDHvUXhHdtWOUOxKAiI6AyOzFXs/iTn0gLj0BK0kbDywkgldLSO7Wk9odiUBEX05thByqNlD6CGqBpVovPdkIanZ5DSx0NUysqslQrQrCYjoBapnbHd+vczH5Q8bcx+Y5OMyRzXMnaXQQs1NLP2uuiK7+k3IdiUBEb1BB1Tb4ZRFe4ZqI7HHmPYFG3xijPlhoRpmmWkxytjlrkEiuwrfriQgggJKMF3chD5ADNt7VU31wGlscBevZYbQzmCQXYVtVxooBTRQigMM3+UGrJvxfXExAxyN6o6MMe8tlU+uo3qf+4nnPdYiu7JGL7uSgAAJCI/qFOd4E9QUqN75CpeckoSFbVR/3nl6X4t8gIsHWcjIruj0titNJBQ2OLTQ1K0NOU6pi5NqPi7rudvf8RCoT1mz5YcAyjp38Kf6+z/46bvcU+LxG9kVD4pdyQMB8kC4WOoMOjQkHkvIrijQ7EpJdGGF6iRWjLJ9RwnQFJF4rEB21RuqXUlAhFWKUXaqzb411ebelXisR3bVCbpdSUCEdbDZk2y7YYF7nBBt3cJOBtnVVlixKwmIcALq+fcttqdIgatilB1LPNoju2qFNbuSgAhnwHXetdgoL1bquLQKMDogu1qLdbuSgAinIAl6iOlzOjX+DC3sxj5R0Deyq2c4sSsJiPACWnbvD/jUWD3kjhWy4iK7cmtXEhDhjWKUFTg12phCFzI3OB0m3VHXF7Ird3YlARHeQSJ0F5PoUt7wU2zwc3kd9pFd2UcCIoIAMeyPCD+kVt8/RTLzcKjNEH0hu7KLWpkAtTIJC7Ss+GCMObM0utMF98aYz0qQh4PsiosEBEhAwgQb/ggbPob+R0Vjg8vbCBTZFQcJCJCAhA9mJpxh49sc7bktc2zur0qMx4fsqjsSECABiQu0ya5nKfgYRTpDDPpbqJtbbI/sajskIEACEjeN4TyvcYpkhiXm2Njf6g2uKqphILvajAZKiSRAQvGPpGJjmM9eI2H6z4YwxbfG36eNdcVAkV1tRgIikqXRtjqJzSrCQHb1G90DEUII0QkJiBBCiE5IQIQQQnRCAiKEEKITEhAhhBCdkIAIIYTohARECCFEJyQgQgghOiEBEUII0QkJiBBCiE5IQIQQQnRCAiKEEKITEhAhhBCdkIAIIYTohARECCFEJzQPRCSLBv8IG1w89LerT2/TsCuNtAUaaRs3Gj0qbHDx4NauPr2Ny67kgYgogXdRbex3+GmTHfyOg8bvn+E0+a0YZfeWf79wBLwLb3Z18fDbrj69Dd+u5IEAeSDhk4/L6gR4Zow52hAu8EF1aqw2+1eJSXxcPIRvV6GKiQQESEDCJB+XO9jYZ+TwgS0KY8wXY8xtMcoK3y9GrObiIV67+vQ2HLuSgACSgNwXo+yY9JIGDYTjAzb4ju/X05HbatMrER8OEI4k7CqERLwEBOCB9V/PZabFKDskvaRBgjDVpTHmxPdrITKFd+p9ww8VhKmStCufQiIBaZCPy7LnEvNilP1NejmDIhGP4yWqjX6q0JY7EvE4XmJhVz5CWxKQBvm4/EFIov2tEs/tyMdldSq8TniDL3MDj0R2YpGLh2HalctSYN1E/xOGgseQkAuCfFzm+bh8NMZMBrTJDU7EP/JxeeT7haTIxUOZXzwM164uHtzZlQTkTyQgjsjHZWXsTw5q7UOlerDd5ePyDuE7QeDiQXZV2dXFQ3mH8J1VJCB/8i9hjTeENZKleljC6xhSaGETR/BGhvrAo1A9LOF1yK5+cgRvxKpdSUD+hFHNoAfBGnB7/Ic+o2dUD7zHfFzqDlEHcHtcdvWchV1dPNizKyXRG5BKeSv2i1E2I6yTDEiUT3y/jgi4R6WWEuwtQKJcdvUy96jUotqVPJAG2LSMPIhOQg3ycTnRJm/NEbwRhWFe4OJBdrUFR/BGqHYlAXkOI4z1nrBGEkA8Urq85YI9Y8wTQn5iBRAP2dV2LOwKIT8KCmEtQQy17A75whhO0I+qSutF5REfKhz6G5ygZVf9WNjVp7f97UoCsgRaafwgLHVejLIbwjrREZB4FJiz8B1/rwV9tpxjaFRB1YOC/sFP3+9BIgICEo+1drWcY2hUQQVpV31FRAKyAtKN9KIYZbuklxQV+bh88rRBCoQgvzKHPjWGVb3z9L4kIj8fxkHYFSsR3RhW5dWu+oiIBGQF+bi8xq3OvhwOrYGeh5zHvNH11voDFh7qEfJcLjf9HNV9gwyLesh5zBtdb63bFZo9erOrrn20JCArQIuJO8JSg+rO61g8qk39uRhlt45+3zPgmbx3/J4Ph1bi61g8Fnb16a0/u4Jn4tyuunhWEpA15OPyP9KN1kEk0x3e8wiuNbrjFvSDOpQ4vOfhvTX6Mo5b0E8/vd3eriQgayCepm+LUXZKWCdYUG76ZPnXFChMCHK0p/ktJBMH94BuilF2bvl3eAflpk7sKtSRsea3kDixq09vt7MrCcgayA/FZG+mo+Lqh+X+Q1GNCkYI9NryfO3jkMW0L6i4sm5Xn97GY1fosmvdrrYRU10kXAMe+KzQ0zVpnRC5s7jJZxDfaDa5+Wk71QbcRxLWFhN4PKli3a5iEo8KPNit2xU8nlZIQDbzmbTOQYrdVtGS3db7uo25dLUYZXOELk9R6cJmJ9U2HmjJbtWuXFRW2eDT22z+6W04dqUQ1gbI4ZkCp+kkKmhw+n2ydEo89VldxQbh0DtLoYekLqzi9GvNrnxWV7FBjsiaXX16+7JdyQPZAB72rDhzXVGRCjamvdV3HZLZ5OZ3OHQfoRM2l4mFsqzZVUriYX56I1btqk0oSwLyMlfEtT6kEMpCyS77fSR92xqHkUNSs84myYSyULJrxa5iDVm9BO5ueLMrhbBaQL4gF3Uoy1LVVdLisUw+Lu9w65hJ1F0PLFVdJS0ey1w82LGrTXdj5IG0g+mF5JGfGD9IPHpzaiHsELNNGVt2NRTxAM7tSgLSAtwkZ8ZPj1DBFBWItZ+Rlx2aeDTDWcz3nSO0GB2ItdPtamDi0QxnUe0KocWVSEDaw/RCKq5x4SwmLsmnxNOhiUcNROSYXIoZa5EG3a6GJh41EBFndiUBaQm8ELaITGKZOofcB/OEe5tatdW2wKaOiUtG54Ug90G1q9SqrbYFnXWpdrXOC5GAbMcN8Xa6wanrMRIRYYbcqtNh8r2c2oDEN/NgEpsXIruyABLf1u1KVVhbQmz13iToRLKFyqtke4N1hTyEK4o+WRYqr/aHGrpaB3kI17M+WfJAtgQbk705Q/dEjoib/ErisRJmx2Z2QtoWVLuSeKzEql1JQLphow9NyCLCeiAVsTVGdAVEldWS5CCS2+k0u4qtMaIrIKo0u1q+nS4B6QAqaGzM+KhE5CmkRCgeRCxRU3x6M1fEg0kwNrQKPIhkV26wZlcSkI4glGWr2mOCuewhwDolTmOIy/sEBxNWB+j3pHVsQbOrkIdBhQBKe63YlQSkH+eWGpkZ9M16DCAUwbqrwi6BTpUb0mkxDzQcWiO7cgvNrtAFeIEEpAeNUJatvlYHCGl5uXCIBxBDwGYx92lyCdkLCfKiKh5AFLsKaYZ5yJC9kF92JQHpCZKfNmee7xhj7vJxeefBG2F1RmUZ7lBgnRbfEdawgezKD3S7koAQQGzfdiLvCN6Iy2oTxgNoPvQb59tCnEOzhzs8oUGxq6HfON8WeCEUu8IdHgkIC0yFs23QOxgg9MNRpRbjpKhN3o0vpHVCnD8ju/IH1a4kIEQwA9uFYeeo1LImJMTBVyyDHRTIGTHa5rwhrEHj4kF25RPkjGh2JQEhAxFxdSO2KSQfyTkSxkYvdOu8F5RwA2ENJhS70q3zXtDsSgJiB3ZP/peo563/QLL9hBD7fk14XaqQ6cc3whqhhbBkV/6h2ZUExAIW51+34QhTxP6DmHzoeB+A4c18JawxWFgXLwO7DyK78gzr4uXFQ7n3F2Mh8ZxaRMjz1LflqK7ZzsflHF7RN/ycv3A3g/HQ0UmxP1OCF5E79og3IbsKA4pdSUAsU4yy03xcmgB6E+3AYH4ZDV6XQVKNOefEIP9BvWCJ/klHSODVIbo5RPEeg3Ssg+E6b5ZO0/VrYD+ovxE2+p6FDtILUM65h+9jkzi8JnXeLVCOKvpBsSsJiAMgIt9eGlDvkZwUWmhCfZBePCx6g60bPlSJyvXFQ3nz6W1m7T7OxcOiI8D1ms+q2oyXFw/lFCNVWWLGWOcfwhp/gNvklx5uu4fiScUOxa6UA3EELtMdWmx7EhrfGYtUJ1wMxWkzue5D9f9bX3JiAgG7ayG0i/YzzX5BPWFsdOrhAB7Yk6dWKRS7Ehy7koA4BDmH/YGcolgn8Lst4+Z77ImReGBuM3p1MdtleXZCF0LrIYbPwqcn7SRMmTqsHmISEMcUo6woRtn+ALqI9t7oeFh1idMe4N/2BiLQpbX+TkAhS0opL7wq3+9JAhIOBxIQT2Ay36E2xEZWDvJ38G+bnPVI/h6QQlmheCGhzKgRHHrblQTEI42QFmvkZEj0CtMRWn7npId33zh/kC3VtwWeWAiXEocQ/o0GCYhnilE2L0aLyqH9gE6avSGU8DIeVow1+uYxgupF1YMgLiOqhDcsJCCBUIyyWTHKDjFbRGEtzp2BXmvYqOaKmCAERISFBCQwUO67Tx6ELzqg064Qm5GABAjCWh+NMbsDFhJGOI+xRt/PPhVvUrkH8QwJSMDUQlKMsr9jC20R5onMej6856SHXl8RYnQ+DYEgBIQ4T0QQkIBEQjHKbotRtovS39vUvRLC+M17Ugiqz9ztgjR21Xv+Aa1ZkinyEAt625UEJDKKUTbF0KpdeCVWmuQRYCSgzzsK5Zw1ox43drt+xqy+XH0/S5b3YHvufxtU2MCjt11JQCIF4a3KKzk2xvxtjDmGZxJKmKv36QYexLb9wxb/hpwA7zJl8oYxd4E0ZZLyWaDT8CljrR5498ZSgNFmp7IrCUgCQEzuK88EYa7aO7n1GLumdIDFQ6vtjf0C4kF9zw0hayMIc3TjZZ3WgxEQ8/OzuPUsIvTOwgOFYldq554gxWgRr77FnwWYSpfjBPe/xknORit3wzwpQhB20d/qbMXa1X//TMo3rHsN1UP4GEncM1xSbIYACgjMZ/JcEkbSmNrBtvqcLx7Kmad27vJAOFDsKiMsIhIkH5dl3zWKUSb76kk+Lu8ID+nzYpRZaZezNFBqo6fz6W02vXjob1ef3squ+nLxwLEreSBiHfO+SbZ8XB6E1o48QhgnRWthTHhm23zHve2q8gJZ7cgHDMWulAMR62A8dFSz3wOEHRlVR0Hc4QCyK8+gySjFriQgYh2MC3DvCGsMGcaDkj6bvieyK/9Q7KryPiUgYh2Mk+IeqQx1qLwnrBFaqIdiV6Qy1KFCsysJiFgH68GTxDwM10B4GRVHoc0Ql115BMJLsysJiFgJwh6M0yLjtDNEKCN5Q/NAkHSXXfmDalcSELEJxsNnj9BYcYgwHpBFMeJeqiRBsSs1VuwExa7qy7oSELEJVidZnRa3IB+XR6TLnUF5Hw1kVx64eODblQRErKUYLXo5MSp4TpRM34oz0jpfSetQQY8wil0pmb4VdLuSgIiXYHX7vSStkzQI9zFCM3McAEJFduUQhPsodtVsEioBES/BOsXKC2kH64EYsngYpl3JC2mFFbuSgIiN4BTLag44Ia2TJPl40SySlRj+QlrHCjjFyq4cgCakVuxKAiLawDrNHiBBLJbIx4umhNek5YpIepDR7AoJYrEEml3S7Gq5B5kERLShz1jXZa7xsBR/ckmctsf8vmxCtSs8LMWfWLUrCYh4kcZ8EQY58USUBPDKPpCWmxO/K6tgborsyhLwyqzalQREtIUZUz9BvH/wwBtjxvBvA2ue+BJUu0K8f/DAG6Pa1aox0RIQ0QrE1Jlx9Wu0Kx86j8QQg4kofLUAMXWqXaFd+dBxYlcSELENV8S1KuO+G3I+JB+XE/KI1luEG2ODbldDzodcPPDtat2YZgmIaI0FLySvTkpDFJF8XH4gNrYziFGfE9dzhgUvZGFXQxSRiwe3diUBEdtySl6vOindkdcMGuR/2Anfz5HlPpaRXfUE+R+6Xa3KfdRIQMRWIERyQ172IB+XgwhnQTzYF99sfCdOQYiEblcXD+UgwlkQD+d2JQERXbgiNcNrcpR6OAthKxu3ps8j9z5qrNlVyiKCsJUVu9rkfRgJiOgCHlbskINB2OExxZ5ZSJjbuKdwH3jTxNbgYWXNrlLsmYWEuRW7ajZNXEdm4ReLgZCPyztLo0WrB8lxJO04NgKP6pFcFVNTfU67iXgfv7h4sGtXy+04YgQelVW7esn7MPJARE9OLYQcDEoxK0/ko4W1nYEb5j8sbfKK09TEA1i1q4uHuO0KN8yt2lUb8TDyQERfML/i0eKvmOFBGeJo1pXA67gktpFYxU0xyqIs220D5ldYt6t6NGsMwOuwblef3ra3KwmI6A08BduDfW6MMVehn7gbJbo2k7azYpTtW1w/COApOLGrtiduXzRKdK3a1ae329mVBERQsJgPaTJHS4Wb0IQEntglce7COpLMe6zDYj6kyS+7Ck1I4Ik5s6tt378ERFCwnCxeJhghQZ7jzMEGN3jfhzGF8/piOVm8TDBCgjyHU7vqEs6TgAgaEJEntJJwwRxDib64rNhCmfGJMea9w/dqkAuKolU7E4iIF7tyWbGFMmMvdvXpbTe7koAIKuiwy+4E2oYCm/6bjXsReF8H2Nw+ur0OUjxq0GHXq121uRexLXhfXu2qq3gYCYiwgUcRaVKdHL/hAbDViFd4GDk29mv89PleBi0eNR5FpMkfdrWNhwIPIyi76iMeRgIibBGIiKxi04bfC/D1SjwaBCIiq4jOrvqKh5GACJsELCKxIPFYQcAiEgsU8TC6iS5sgmqhfVzaEu2ZSzzWg2oh2dX2zJniYeSBCBegOuvOUUli7AyuVLcrqM6SXbWjc6nuJiQgwhn5uLy23IYhdmYQj6Aus4XOxYPs6gVmEA+6XUlAhFNw8W6i+PUzku5tZRtcvJNdPWer3lbbIgERzkGZ7EShhwV1viOJmR4+QZms7Oondb7Dql1JQIQ3MKHvcsCnxvuEW7J7AxP6Bm9XLtqxSECEVwbqjRQYQyuvwxID9UYKjKF1ZlcSEBEE6GY7cdwDyDXBNIEcCuhmOxi7ct0EUgIiggLzNC4T3PC38DokHB7API1k7cpX92AJiAiSRIRkjg3+uRhlhe8XI5IRkl929emtX7uSgIigcTxvg0WBkMKtPI4wcTxvg8Uvu/I9r6RGAiKiwOMMjrZ4mU0i+uFxBkdbvMwmaYsEREQHmjRWJ8h3nmYo1BTowvpVFVXxgyaNQdmVy4qqLkhARNSgz9aBMeYNNr3NkES9sb9XP9WvKl3QZ8uLXbH7VdlEAiKSAx5Kjo3/TyM00eYhMEPYYI4NPcf/baZ8xrCBh0K3q1DyGV34/wAAAP//NG4DOOirpt8AAAAASUVORK5CYII=;" vertex="1" parent="P23BceGOKxN0Vzk2Ie9N-3">
                    <mxGeometry x="260" y="210" width="80" height="80" as="geometry"/>
                </mxCell>
                <mxCell id="8PHDK9WQNix64sOF80Rl-5" value="GitHub Pages" style="dashed=0;outlineConnect=0;html=1;align=center;labelPosition=center;verticalLabelPosition=bottom;verticalAlign=top;shape=mxgraph.weblogos.github" vertex="1" parent="P23BceGOKxN0Vzk2Ie9N-3">
                    <mxGeometry x="460" y="60" width="80" height="80" as="geometry"/>
                </mxCell>
                <mxCell id="8PHDK9WQNix64sOF80Rl-6" value="GitHub Repository" style="verticalLabelPosition=bottom;html=1;verticalAlign=top;align=center;strokeColor=none;fillColor=#00BEF2;shape=mxgraph.azure.git_repository;" vertex="1" parent="P23BceGOKxN0Vzk2Ie9N-3">
                    <mxGeometry x="320" y="360" width="80" height="80" as="geometry"/>
                </mxCell>
                <mxCell id="hufKCJhhJf5Ufj19yKM_-1" style="edgeStyle=orthogonalEdgeStyle;html=1;entryX=0;entryY=0.5;entryDx=0;entryDy=0;entryPerimeter=0;strokeWidth=3;fillColor=#dae8fc;strokeColor=#6c8ebf;" edge="1" parent="P23BceGOKxN0Vzk2Ie9N-3" source="8PHDK9WQNix64sOF80Rl-7" target="8PHDK9WQNix64sOF80Rl-6">
                    <mxGeometry relative="1" as="geometry">
                        <Array as="points">
                            <mxPoint x="150" y="400"/>
                            <mxPoint x="150" y="400"/>
                        </Array>
                    </mxGeometry>
                </mxCell>
                <mxCell id="z4P9eesXwO7NNuCCUZ8Q-0" value="①ドキュメント作成シェルのコミット" style="edgeLabel;html=1;align=center;verticalAlign=middle;resizable=0;points=[];fontStyle=1" vertex="1" connectable="0" parent="hufKCJhhJf5Ufj19yKM_-1">
                    <mxGeometry x="-0.0782" relative="1" as="geometry">
                        <mxPoint y="-10" as="offset"/>
                    </mxGeometry>
                </mxCell>
                <mxCell id="26lTJ1h5X1y3i4yfRkBJ-5" style="edgeStyle=orthogonalEdgeStyle;html=1;strokeWidth=3;fillColor=#dae8fc;strokeColor=#6c8ebf;" edge="1" parent="P23BceGOKxN0Vzk2Ie9N-3" source="8PHDK9WQNix64sOF80Rl-7" target="8PHDK9WQNix64sOF80Rl-5">
                    <mxGeometry relative="1" as="geometry">
                        <Array as="points">
                            <mxPoint x="60" y="100"/>
                        </Array>
                    </mxGeometry>
                </mxCell>
                <mxCell id="26lTJ1h5X1y3i4yfRkBJ-6" value="⑥生成したドキュメントの閲覧" style="edgeLabel;html=1;align=center;verticalAlign=middle;resizable=0;points=[];fontStyle=1" vertex="1" connectable="0" parent="26lTJ1h5X1y3i4yfRkBJ-5">
                    <mxGeometry x="0.3001" y="1" relative="1" as="geometry">
                        <mxPoint x="7" y="-9" as="offset"/>
                    </mxGeometry>
                </mxCell>
                <mxCell id="8PHDK9WQNix64sOF80Rl-7" value="ユーザ" style="sketch=0;outlineConnect=0;fontColor=#232F3E;gradientColor=none;fillColor=#232F3D;strokeColor=none;dashed=0;verticalLabelPosition=bottom;verticalAlign=top;align=center;html=1;fontSize=12;fontStyle=0;aspect=fixed;pointerEvents=1;shape=mxgraph.aws4.user;" vertex="1" parent="P23BceGOKxN0Vzk2Ie9N-3">
                    <mxGeometry x="20" y="360" width="80" height="80" as="geometry"/>
                </mxCell>
                <mxCell id="mMnIP-xPhr2QNvxFJkvS-5" value="STS" style="sketch=0;outlineConnect=0;fontColor=#232F3E;gradientColor=none;fillColor=#BF0816;strokeColor=none;dashed=0;verticalLabelPosition=bottom;verticalAlign=top;align=center;html=1;fontSize=12;fontStyle=0;aspect=fixed;pointerEvents=1;shape=mxgraph.aws4.sts;" vertex="1" parent="P23BceGOKxN0Vzk2Ie9N-3">
                    <mxGeometry x="680" y="224.36" width="80" height="51.28" as="geometry"/>
                </mxCell>
            </root>
        </mxGraphModel>
    </diagram>
</mxfile>